<?xml version="1.0" standalone="no"?>
<!DOCTYPE svg PUBLIC "-//W3C//DTD SVG 20010904//EN"
 "http://www.w3.org/TR/2001/REC-SVG-20010904/DTD/svg10.dtd">
<svg version="1.0" xmlns="http://www.w3.org/2000/svg"
 width="528.000000pt" height="528.000000pt" viewBox="0 0 528.000000 528.000000"
 preserveAspectRatio="xMidYMid meet">
<metadata>
Created by potrace 1.14, written by Peter Selinger 2001-2017
</metadata>
<g transform="translate(0.000000,528.000000) scale(0.100000,-0.100000)"
fill="#000000" stroke="none">
<path d="M1460 3769 c-30 -4 -58 -5 -62 -3 -5 3 -8 2 -8 -3 0 -4 -12 -9 -28
-10 -38 -4 -55 -8 -67 -15 -5 -3 -26 -9 -45 -14 -19 -4 -37 -9 -40 -10 -3 -1
-16 -5 -30 -10 -54 -17 -197 -98 -254 -144 -208 -165 -312 -381 -308 -641 2
-235 93 -420 278 -567 69 -54 371 -185 479 -206 51 -10 252 -58 265 -63 8 -4
17 -7 20 -8 3 -1 20 -6 38 -10 82 -19 35 -38 -103 -40 -201 -3 -357 49 -520
170 -48 36 -100 75 -110 83 -50 38 -117 84 -119 81 -2 -2 -17 -33 -34 -69 -16
-36 -61 -132 -100 -215 -38 -82 -89 -190 -112 -240 -23 -49 -50 -106 -60 -127
-18 -35 -18 -37 -1 -57 10 -12 21 -21 25 -21 4 0 17 -10 29 -23 12 -13 40 -36
62 -53 22 -16 42 -31 45 -34 30 -33 218 -134 305 -165 47 -16 56 -19 80 -25 6
-1 21 -7 35 -12 22 -8 110 -29 185 -42 99 -18 350 -25 455 -13 72 9 183 29
225 42 6 1 13 3 17 4 25 4 128 47 185 77 195 102 324 249 393 450 25 73 33
124 34 216 1 43 4 78 7 78 3 0 11 -24 18 -52 41 -164 179 -397 296 -501 11
-10 34 -30 50 -45 43 -40 131 -102 143 -102 6 0 12 -4 14 -8 11 -28 275 -127
393 -147 141 -24 370 -24 495 0 82 15 176 38 185 45 6 4 28 13 50 20 93 30
305 149 305 173 0 4 4 7 8 7 13 0 172 156 172 169 0 6 -4 11 -10 11 -5 0 -10
6 -10 14 0 8 -9 31 -20 53 -25 49 -261 575 -263 588 -2 6 -6 12 -11 14 -7 4
-145 -101 -201 -152 -11 -11 -47 -38 -80 -62 -137 -98 -199 -119 -355 -119
-116 -1 -148 5 -204 38 -69 41 -134 145 -150 243 -2 15 -5 28 -6 28 -9 0 -13
277 -5 313 3 12 7 32 10 45 2 12 7 35 11 51 18 82 79 172 138 204 127 68 314
60 468 -20 48 -25 322 -233 338 -257 3 -4 13 -10 23 -14 13 -5 20 0 26 16 5
12 41 94 81 182 40 88 81 180 92 205 21 50 23 53 74 165 20 44 40 90 44 102 8
18 -3 32 -69 95 -126 119 -192 166 -313 221 -183 85 -338 119 -548 121 -234 2
-377 -24 -545 -97 -67 -30 -213 -114 -245 -142 -82 -72 -185 -186 -231 -255
-82 -126 -157 -306 -175 -420 -3 -19 -8 -38 -10 -42 -3 -4 -7 -31 -10 -60 -3
-29 -7 -66 -9 -83 -7 -45 -6 -276 0 -307 9 -44 -8 -32 -34 25 -31 67 -117 174
-178 223 -26 21 -52 41 -56 44 -7 6 35 107 130 310 70 150 173 380 173 386 0
16 -187 180 -249 219 -137 85 -329 158 -476 180 -16 2 -41 7 -55 10 -40 10
-320 13 -380 4z m320 -774 c19 -4 39 -11 45 -16 5 -5 16 -9 25 -9 8 0 42 -14
75 -31 73 -38 110 -63 190 -131 18 -16 35 -28 38 -28 2 0 22 -16 43 -37 l39
-36 -35 19 c-92 52 -296 120 -505 170 -144 34 -214 55 -226 70 -12 15 -11 16
51 32 38 11 203 9 260 -3z"/>
</g>
</svg>
